<svg xmlns="http://www.w3.org/2000/svg" width="70" height="70" viewBox="0 0 32 32">
  <g fill="black">
    <path d="M16,4c-6.62891,0 -12,5.37109 -12,12c0,5.30078 3.4375,9.80078 8.20703,11.38672c0.60156,0.10938 0.82031,-0.25781 0.82031,-0.57812c0,-0.28516 -0.01172,-1.03906 -0.01562,-2.03906c-3.33984,0.72266 -4.04297,-1.60937 -4.04297,-1.60937c-0.54687,-1.38672 -1.33203,-1.75781 -1.33203,-1.75781c-1.08984,-0.74219 0.08203,-0.72656 0.08203,-0.72656c1.20313,0.08594 1.83594,1.23438 1.83594,1.23438c1.07031,1.83594 2.80859,1.30469 3.49219,1c0.10938,-0.77734 0.42188,-1.30469 0.76172,-1.60938c-2.66797,-0.30469 -5.46875,-1.33203 -5.46875,-5.91797c0,-1.30859 0.46484,-2.38281 1.22656,-3.22656c-0.12109,-0.30469 -0.53125,-1.52734 0.11328,-3.17969c0,0 1.00391,-0.32031 3.28906,1.23047c0.95703,-0.26563 1.98438,-0.39844 3.00391,-0.40234c1.01953,0.00391 2.04688,0.13672 3.00391,0.40234c2.28516,-1.55078 3.28906,-1.23047 3.28906,-1.23047c0.64453,1.65234 0.23438,2.875 0.11328,3.17969c0.76172,0.84375 1.22656,1.91797 1.22656,3.22656c0,4.59766 -2.80859,5.60938 -5.48047,5.90234c0.43359,0.375 0.82031,1.125 0.82031,2.26953c0,1.63672 -0.01562,2.96094 -0.01562,3.36328c0,0.32422 0.21484,0.69531 0.82812,0.57812c4.76953,-1.58984 8.20703,-6.08984 8.20703,-11.38672c0,-6.62891 -5.37109,-12 -12,-12z"></path>
  </g>
</svg>
