<svg xmlns="http://www.w3.org/2000/svg" width="70" height="70" viewBox="0 0 32 32">
  <g fill="#ff3a1e">
    <path d="M21,6.5c0,-1.381 -1.119,-2.5 -2.5,-2.5c-1.381,0 -2.5,1.119 -2.5,2.5c0,0.796 0,5.202 0,6c0,1.381 1.119,2.5 2.5,2.5c1.381,0 2.5,-1.119 2.5,-2.5c0,-0.798 0,-5.204 0,-6zM27,12.5c0,1.381 -1.119,2.5 -2.5,2.5c-0.621,0 -2.5,0 -2.5,0c0,0 0,-1.74 0,-2.5c0,-1.381 1.119,-2.5 2.5,-2.5c1.381,0 2.5,1.119 2.5,2.5zM24.5,21c1.381,0 2.5,-1.119 2.5,-2.5c0,-1.381 -1.119,-2.5 -2.5,-2.5c-0.796,0 -5.202,0 -6,0c-1.381,0 -2.5,1.119 -2.5,2.5c0,1.381 1.119,2.5 2.5,2.5c0.798,0 5.204,0 6,0zM18.5,27c-1.381,0 -2.5,-1.119 -2.5,-2.5c0,-0.621 0,-2.5 0,-2.5c0,0 1.74,0 2.5,0c1.381,0 2.5,1.119 2.5,2.5c0,1.381 -1.119,2.5 -2.5,2.5zM10,24.5c0,1.381 1.119,2.5 2.5,2.5c1.381,0 2.5,-1.119 2.5,-2.5c0,-0.796 0,-5.202 0,-6c0,-1.381 -1.119,-2.5 -2.5,-2.5c-1.381,0 -2.5,1.119 -2.5,2.5c0,0.798 0,5.204 0,6zM4,18.5c0,-1.381 1.119,-2.5 2.5,-2.5c0.621,0 2.5,0 2.5,0c0,0 0,1.74 0,2.5c0,1.381 -1.119,2.5 -2.5,2.5c-1.381,0 -2.5,-1.119 -2.5,-2.5zM6.5,10c-1.381,0 -2.5,1.119 -2.5,2.5c0,1.381 1.119,2.5 2.5,2.5c0.796,0 5.202,0 6,0c1.381,0 2.5,-1.119 2.5,-2.5c0,-1.381 -1.119,-2.5 -2.5,-2.5c-0.798,0 -5.204,0 -6,0zM12.5,4c1.381,0 2.5,1.119 2.5,2.5c0,0.621 0,2.5 0,2.5c0,0 -1.74,0 -2.5,0c-1.381,0 -2.5,-1.119 -2.5,-2.5c0,-1.381 1.119,-2.5 2.5,-2.5z"></path>
  </g>
</svg>
